<?xml version="1.0" encoding="utf-8"?>
<!-- Generator: Adobe Illustrator 22.1.0, SVG Export Plug-In . SVG Version: 6.00 Build 0)  -->
<svg version="1.1" id="Layer_1" xmlns="http://www.w3.org/2000/svg" xmlns:xlink="http://www.w3.org/1999/xlink" x="0px" y="0px"
	 viewBox="0 0 700 100" style="enable-background:new 0 0 700 100;" xml:space="preserve">
<title>Artboard 1</title>
<g>
	<path d="M43.2,29.8v32.3h12.7v7.5H33.5V29.8H43.2z"/>
	<path d="M79.4,70c-11.3,0-20.5-8.4-20.5-20.4s9.2-20.4,20.5-20.4s20.4,8.4,20.4,20.4S90.7,70,79.4,70z M79.4,61.1
		c6.3,0,10.5-4.6,10.5-11.6c0-7.1-4.1-11.6-10.5-11.6c-6.5,0-10.5,4.5-10.5,11.6C68.8,56.5,72.9,61.1,79.4,61.1z"/>
	<path d="M121.4,29.8c9.8,0,14.6,5.6,14.6,12.5c0,5-2.7,9.7-8.8,11.5l9.2,15.8h-10.9l-8.3-15h-2.3v15h-9.7V29.8H121.4z M120.8,37.8
		h-6v9.9h6c3.6,0,5.3-1.9,5.3-5C126.1,39.8,124.4,37.8,120.8,37.8z"/>
	<path d="M166.5,37.6h-14.7v8h13v7.5h-13v8.7h14.7v7.8h-24.4V29.8h24.4V37.6z"/>
	<path d="M208.3,29.8v39.8h-9.7L182.4,45v24.5h-9.7V29.8h9.7l16.2,24.7V29.8H208.3z"/>
	<path d="M242.8,37.2l-17.1,24.5h17.1v7.9h-28.1v-7.4l17-24.5h-17v-7.9h28.1V37.2z"/>
	<path d="M268,70c-11.3,0-20.5-8.4-20.5-20.4s9.2-20.4,20.5-20.4s20.4,8.4,20.4,20.4S279.3,70,268,70z M268,61.1
		c6.3,0,10.5-4.6,10.5-11.6c0-7.1-4.1-11.6-10.5-11.6c-6.5,0-10.5,4.5-10.5,11.6C257.4,56.5,261.5,61.1,268,61.1z"/>
	<path d="M332.8,29.8h10.3L329,69.6h-12.1l-14.1-39.8h10.3l9.9,30L332.8,29.8z"/>
	<path d="M371.5,37.6h-14.7v8h13v7.5h-13v8.7h14.7v7.8h-24.4V29.8h24.4V37.6z"/>
	<path d="M413.4,29.8v39.8h-9.7L387.5,45v24.5h-9.7V29.8h9.7l16.2,24.7V29.8H413.4z"/>
	<path d="M456,29.8v39.8h-9.7L430.1,45v24.5h-9.7V29.8h9.7l16.2,24.7V29.8H456z"/>
	<path d="M487.4,37.6h-14.7v8h13v7.5h-13v8.7h14.7v7.8H463V29.8h24.4V37.6z"/>
	<path d="M510,29.8c9.8,0,14.6,5.6,14.6,12.5c0,5-2.7,9.7-8.8,11.5l9.2,15.8h-11l-8.3-15h-2.3v15h-9.7V29.8H510z M509.4,37.8h-6v9.9
		h6c3.6,0,5.3-1.9,5.3-5C514.8,39.8,513.1,37.8,509.4,37.8z"/>
	<path d="M530.7,29.8h9.7v39.8h-9.7V29.8z"/>
</g>
</svg>
