<?xml version="1.0" encoding="utf-8"?>
<!-- Generator: Adobe Illustrator 22.1.0, SVG Export Plug-In . SVG Version: 6.00 Build 0)  -->
<svg version="1.1" id="Layer_1" xmlns="http://www.w3.org/2000/svg" xmlns:xlink="http://www.w3.org/1999/xlink" x="0px" y="0px"
	 viewBox="0 0 700 100" style="enable-background:new 0 0 700 100;" xml:space="preserve">
<title>Artboard 1</title>
<g>
	<path d="M22.2,16.8v32.3h12.7v7.5H12.5V16.8H22.2z"/>
	<path d="M58.4,57c-11.3,0-20.5-8.4-20.5-20.4s9.2-20.4,20.5-20.4s20.4,8.4,20.4,20.4S69.7,57,58.4,57z M58.4,48.1
		c6.3,0,10.5-4.6,10.5-11.6c0-7.1-4.1-11.6-10.5-11.6c-6.5,0-10.5,4.5-10.5,11.6C47.8,43.5,51.9,48.1,58.4,48.1z"/>
	<path d="M100.4,16.8c9.8,0,14.6,5.6,14.6,12.5c0,5-2.7,9.7-8.8,11.5l9.2,15.8h-10.9l-8.3-15h-2.3v15h-9.7V16.8H100.4z M99.8,24.8
		h-6v9.9h6c3.6,0,5.3-1.9,5.3-5C105.1,26.8,103.4,24.8,99.8,24.8z"/>
	<path d="M145.5,24.6h-14.7v8h13v7.5h-13v8.7h14.7v7.8h-24.4V16.8h24.4V24.6z"/>
	<path d="M187.3,16.8v39.8h-9.7L161.4,32v24.5h-9.7V16.8h9.7l16.2,24.7V16.8H187.3z"/>
	<path d="M221.8,24.2l-17.1,24.5h17.1v7.9h-28.1v-7.4l17-24.5h-17v-7.9h28.1V24.2z"/>
	<path d="M247,57c-11.3,0-20.5-8.4-20.5-20.4s9.2-20.4,20.5-20.4c11.3,0,20.4,8.4,20.4,20.4S258.3,57,247,57z M247,48.1
		c6.3,0,10.5-4.6,10.5-11.6c0-7.1-4.1-11.6-10.5-11.6c-6.5,0-10.5,4.5-10.5,11.6C236.4,43.5,240.5,48.1,247,48.1z"/>
	<path d="M311.8,16.8h10.3L308,56.6h-12.1l-14.1-39.8h10.3l9.9,30L311.8,16.8z"/>
	<path d="M350.5,24.6h-14.7v8h13v7.5h-13v8.7h14.7v7.8h-24.4V16.8h24.4V24.6z"/>
	<path d="M392.4,16.8v39.8h-9.7L366.5,32v24.5h-9.7V16.8h9.7l16.2,24.7V16.8H392.4z"/>
	<path d="M435,16.8v39.8h-9.7L409.1,32v24.5h-9.7V16.8h9.7l16.2,24.7V16.8H435z"/>
	<path d="M466.4,24.6h-14.7v8h13v7.5h-13v8.7h14.7v7.8H442V16.8h24.4V24.6z"/>
	<path d="M489,16.8c9.8,0,14.6,5.6,14.6,12.5c0,5-2.7,9.7-8.8,11.5l9.2,15.8h-11l-8.3-15h-2.3v15h-9.7V16.8H489z M488.4,24.8h-6v9.9
		h6c3.6,0,5.3-1.9,5.3-5C493.8,26.8,492.1,24.8,488.4,24.8z"/>
	<path d="M509.7,16.8h9.7v39.8h-9.7V16.8z"/>
</g>
<g>
	<path d="M19.3,68.8c4,0,6,2.3,6,5.1c0,2.1-1.1,3.9-3.5,4.6l3.6,6.2h-5l-3.2-5.9h-0.5v5.9h-4.4v-16H19.3z M18.9,72.5h-2.2v3.3h2.2
		c1.2,0,1.8-0.6,1.8-1.7C20.7,73.2,20.1,72.5,18.9,72.5z"/>
	<path d="M33,84.9c-3.8,0-6.5-2.5-6.5-6.5c0-4,2.7-6.5,6.5-6.5c3.8,0,6.4,2.4,6.4,6.4c0,0.3,0,0.7-0.1,1h-8.4
		c0.1,1.5,0.9,2.1,1.9,2.1c0.9,0,1.3-0.5,1.6-1h4.7C38.6,83,36.2,84.9,33,84.9z M31,77.2h3.9c0-1.1-0.9-1.7-1.9-1.7
		C31.9,75.4,31.2,76,31,77.2z"/>
	<path d="M41.6,75.8h-1.4v-3.7h1.4v-0.1c0-3.5,2.3-5.3,6.4-5v3.8c-1.3-0.1-1.9,0.2-1.9,1.4h2v3.7h-2v9h-4.5V75.8z"/>
	<path d="M55.4,84.9c-3.8,0-6.5-2.5-6.5-6.5c0-4,2.7-6.5,6.5-6.5c3.8,0,6.4,2.4,6.4,6.4c0,0.3,0,0.7-0.1,1h-8.4
		c0.1,1.5,0.9,2.1,1.9,2.1c0.9,0,1.3-0.5,1.6-1h4.7C61,83,58.6,84.9,55.4,84.9z M53.4,77.2h3.9c0-1.1-0.9-1.7-1.9-1.7
		C54.3,75.4,53.6,76,53.4,77.2z"/>
	<path d="M68.1,84.8h-4.4V72.1h4.4v2.2c1-1.4,2.4-2.4,4.1-2.4v4.7H71c-1.8,0-2.9,0.6-2.9,2.5V84.8z"/>
	<path d="M79.5,84.9c-3.8,0-6.5-2.5-6.5-6.5c0-4,2.7-6.5,6.5-6.5c3.8,0,6.4,2.4,6.4,6.4c0,0.3,0,0.7-0.1,1h-8.4
		c0.1,1.5,0.9,2.1,1.9,2.1c0.9,0,1.3-0.5,1.6-1h4.7C85.1,83,82.7,84.9,79.5,84.9z M77.5,77.2h3.9c0-1.1-0.9-1.7-1.9-1.7
		C78.4,75.4,77.7,76,77.5,77.2z"/>
	<path d="M96.4,78c0-1.5-0.8-2.3-2.1-2.3c-1.3,0-2.1,0.9-2.1,2.3v6.8h-4.4V72.1h4.4v1.8c0.7-1.1,2.1-1.9,3.9-1.9
		c2.9,0,4.8,2.1,4.8,5.4v7.4h-4.4V78z"/>
	<path d="M109,71.9c3.2,0,5.6,1.8,6.2,5h-4.7c-0.2-0.8-0.7-1.2-1.6-1.2c-1.1,0-1.8,0.9-1.8,2.7c0,1.8,0.7,2.7,1.8,2.7
		c0.8,0,1.3-0.5,1.6-1.2h4.7c-0.6,3.2-3,5-6.2,5c-3.8,0-6.4-2.5-6.4-6.5C102.6,74.4,105.2,71.9,109,71.9z"/>
	<path d="M122.8,84.9c-3.8,0-6.5-2.5-6.5-6.5c0-4,2.7-6.5,6.5-6.5c3.8,0,6.4,2.4,6.4,6.4c0,0.3,0,0.7-0.1,1h-8.4
		c0.1,1.5,0.9,2.1,1.9,2.1c0.9,0,1.3-0.5,1.6-1h4.7C128.4,83,126,84.9,122.8,84.9z M120.8,77.2h3.9c0-1.1-0.9-1.7-1.9-1.7
		C121.7,75.4,121,76,120.8,77.2z"/>
	<path d="M142,79.4h-2.2v5.4h-4.4v-16h6.6c4,0,6,2.2,6,5.3C148,76.9,146.1,79.4,142,79.4z M141.6,75.8c1.3,0,1.9-0.7,1.9-1.7
		c0-1.1-0.5-1.7-1.9-1.7h-1.8v3.5H141.6z"/>
	<path d="M154.5,71.9c1.8,0,3.1,0.8,3.7,1.9v-1.8h4.4v12.7h-4.4V83c-0.7,1.1-1.9,1.9-3.7,1.9c-3,0-5.4-2.5-5.4-6.5
		C149.1,74.4,151.5,71.9,154.5,71.9z M155.9,75.8c-1.3,0-2.3,0.9-2.3,2.6c0,1.7,1,2.7,2.3,2.7c1.2,0,2.3-0.9,2.3-2.7
		C158.2,76.7,157.2,75.8,155.9,75.8z"/>
	<path d="M169.9,71.9c1.8,0,3.1,0.8,3.7,1.9v-1.8h4.4v12.6c0,3.4-1.9,6.4-6.4,6.4c-4,0-6.4-2-6.7-5.1h4.4c0.2,0.8,1,1.3,2.1,1.3
		c1.2,0,2.3-0.6,2.3-2.5V83c-0.7,1.1-1.9,1.9-3.7,1.9c-3,0-5.4-2.5-5.4-6.5C164.5,74.4,166.9,71.9,169.9,71.9z M171.3,75.8
		c-1.3,0-2.3,0.9-2.3,2.6c0,1.7,1,2.7,2.3,2.7c1.2,0,2.3-0.9,2.3-2.7C173.7,76.7,172.6,75.8,171.3,75.8z"/>
	<path d="M186.4,84.9c-3.8,0-6.5-2.5-6.5-6.5c0-4,2.7-6.5,6.5-6.5c3.8,0,6.4,2.4,6.4,6.4c0,0.3,0,0.7-0.1,1h-8.4
		c0.1,1.5,0.9,2.1,1.9,2.1c0.9,0,1.3-0.5,1.6-1h4.7C191.9,83,189.6,84.9,186.4,84.9z M184.3,77.2h3.9c0-1.1-0.9-1.7-1.9-1.7
		C185.3,75.4,184.5,76,184.3,77.2z"/>
</g>
</svg>
