<?xml version="1.0" encoding="utf-8"?>
<!-- Generator: Adobe Illustrator 22.1.0, SVG Export Plug-In . SVG Version: 6.00 Build 0)  -->
<svg version="1.1" id="Layer_1" xmlns="http://www.w3.org/2000/svg" xmlns:xlink="http://www.w3.org/1999/xlink" x="0px" y="0px"
	 viewBox="0 0 700 100" style="enable-background:new 0 0 700 100;" xml:space="preserve">
<title>Artboard 1</title>
<g>
	<path d="M22.2,16.8v32.3h12.7v7.5H12.5V16.8H22.2z"/>
	<path d="M58.4,57c-11.3,0-20.5-8.4-20.5-20.4s9.2-20.4,20.5-20.4c11.3,0,20.4,8.4,20.4,20.4S69.7,57,58.4,57z M58.4,48.1
		c6.3,0,10.5-4.6,10.5-11.6c0-7.1-4.1-11.6-10.5-11.6c-6.5,0-10.5,4.5-10.5,11.6C47.8,43.5,51.9,48.1,58.4,48.1z"/>
	<path d="M100.4,16.8c9.8,0,14.6,5.6,14.6,12.5c0,5-2.7,9.7-8.8,11.5l9.2,15.8h-10.9l-8.3-15h-2.3v15h-9.7V16.8H100.4z M99.8,24.8
		h-6v9.9h6c3.6,0,5.3-1.9,5.3-5C105.1,26.8,103.4,24.8,99.8,24.8z"/>
	<path d="M145.5,24.6h-14.7v8h13v7.5h-13v8.7h14.7v7.8h-24.4V16.8h24.4V24.6z"/>
	<path d="M187.3,16.8v39.8h-9.7L161.4,32v24.5h-9.7V16.8h9.7l16.2,24.7V16.8H187.3z"/>
	<path d="M221.8,24.2l-17.1,24.5h17.1v7.9h-28.1v-7.4l17-24.5h-17v-7.9h28.1V24.2z"/>
	<path d="M247,57c-11.3,0-20.5-8.4-20.5-20.4s9.2-20.4,20.5-20.4c11.3,0,20.4,8.4,20.4,20.4S258.3,57,247,57z M247,48.1
		c6.3,0,10.5-4.6,10.5-11.6c0-7.1-4.1-11.6-10.5-11.6c-6.5,0-10.5,4.5-10.5,11.6C236.4,43.5,240.5,48.1,247,48.1z"/>
	<path d="M311.8,16.8h10.3L308,56.6h-12.1l-14.1-39.8h10.3l9.9,30L311.8,16.8z"/>
	<path d="M350.5,24.6h-14.7v8h13v7.5h-13v8.7h14.7v7.8h-24.4V16.8h24.4V24.6z"/>
	<path d="M392.4,16.8v39.8h-9.7L366.5,32v24.5h-9.7V16.8h9.7l16.2,24.7V16.8H392.4z"/>
	<path d="M435,16.8v39.8h-9.7L409.1,32v24.5h-9.7V16.8h9.7l16.2,24.7V16.8H435z"/>
	<path d="M466.4,24.6h-14.7v8h13v7.5h-13v8.7h14.7v7.8h-24.4V16.8h24.4V24.6z"/>
	<path d="M489,16.8c9.8,0,14.6,5.6,14.6,12.5c0,5-2.7,9.7-8.8,11.5l9.2,15.8H493l-8.3-15h-2.3v15h-9.7V16.8H489z M488.4,24.8h-6v9.9
		h6c3.6,0,5.3-1.9,5.3-5C493.8,26.8,492.1,24.8,488.4,24.8z"/>
	<path d="M509.7,16.8h9.7v39.8h-9.7V16.8z"/>
</g>
<g>
	<path d="M10.5,71.2h4.4l2,10.2l2.4-10.2h4.6l2.4,10.1l2-10.1h4.1l-3.9,14.2h-4.8l-2.2-9.2l-2.3,9.2h-4.8L10.5,71.2z"/>
	<path d="M32.6,71.2H37l2,10.2l2.4-10.2H46l2.4,10.1l2-10.1h4.1l-3.9,14.2h-4.8l-2.2-9.2l-2.3,9.2h-4.8L32.6,71.2z"/>
	<path d="M54.7,71.2h4.4l2,10.2l2.4-10.2h4.6l2.4,10.1l2-10.1h4.1l-3.9,14.2H68l-2.2-9.2l-2.3,9.2h-4.8L54.7,71.2z"/>
	<path d="M89.1,71c1.9,0,3.5,0.9,4.4,2.2v-6.6h4.4v18.9h-4.4v-2c-0.8,1.3-2.3,2.2-4.4,2.2c-3.5,0-6.3-2.9-6.3-7.3S85.6,71,89.1,71z
		 M90.4,74.8c-1.6,0-3.1,1.2-3.1,3.5s1.5,3.5,3.1,3.5c1.7,0,3.1-1.2,3.1-3.5C93.5,76.1,92,74.8,90.4,74.8z"/>
	<path d="M100.6,67.4c0-1.3,1-2.4,2.6-2.4c1.5,0,2.6,1,2.6,2.4c0,1.3-1,2.3-2.6,2.3C101.7,69.7,100.6,68.7,100.6,67.4z M101,71.2
		h4.4v14.2H101V71.2z"/>
	<path d="M112.9,85.5h-4.4V71.2h4.4v2.4c1-1.5,2.6-2.5,4.5-2.5v4.6h-1.2c-2.1,0-3.3,0.7-3.3,3.2V85.5z"/>
	<path d="M125.8,85.7c-4.2,0-7.2-2.8-7.2-7.3c0-4.5,3-7.3,7.2-7.3c4.2,0,7.1,2.8,7.1,7.1c0,0.4,0,0.8-0.1,1.3h-9.9
		c0.2,1.9,1.3,2.7,2.7,2.7c1.2,0,1.9-0.6,2.3-1.4h4.6C131.9,83.5,129.3,85.7,125.8,85.7z M123,77h5.5c0-1.6-1.2-2.4-2.7-2.4
		C124.3,74.5,123.2,75.4,123,77z"/>
	<path d="M141.5,71c3.6,0,6.1,2,6.8,5.4h-4.6c-0.4-1-1.1-1.6-2.3-1.6c-1.6,0-2.6,1.2-2.6,3.6c0,2.4,1.1,3.6,2.6,3.6
		c1.2,0,1.9-0.6,2.3-1.6h4.6c-0.7,3.3-3.3,5.4-6.8,5.4c-4.2,0-7.1-2.8-7.1-7.3C134.3,73.8,137.3,71,141.5,71z"/>
	<path d="M151.3,74.8h-1.7v-3.6h1.7v-3.5h4.4v3.5h2.9v3.6h-2.9v5.7c0,0.8,0.4,1.2,1.3,1.2h1.6v3.7h-2.2c-3,0-5-1.2-5-4.9V74.8z"/>
	<path d="M167.4,85.7c-4.2,0-7.3-2.8-7.3-7.3c0-4.5,3.2-7.3,7.4-7.3c4.2,0,7.4,2.8,7.4,7.3C174.9,82.8,171.6,85.7,167.4,85.7z
		 M167.4,81.9c1.6,0,3-1.1,3-3.5c0-2.4-1.4-3.5-3-3.5c-1.6,0-3,1.1-3,3.5C164.5,80.7,165.9,81.9,167.4,81.9z"/>
	<path d="M181.6,85.5h-4.4V71.2h4.4v2.4c1-1.5,2.6-2.5,4.5-2.5v4.6h-1.2c-2.1,0-3.3,0.7-3.3,3.2V85.5z"/>
	<path d="M198,71.2h4.7l-8.9,21h-4.7l3.3-7.2l-5.8-13.8h4.9l3.3,8.9L198,71.2z"/>
	<path d="M214,85.5h-4.4V71.2h4.4v2.4c1-1.5,2.6-2.5,4.5-2.5v4.6h-1.2c-2.1,0-3.3,0.7-3.3,3.2V85.5z"/>
	<path d="M226.9,85.7c-4.2,0-7.2-2.8-7.2-7.3c0-4.5,3-7.3,7.2-7.3c4.2,0,7.1,2.8,7.1,7.1c0,0.4,0,0.8-0.1,1.3h-9.9
		c0.2,1.9,1.3,2.7,2.7,2.7c1.2,0,1.9-0.6,2.3-1.4h4.6C233,83.5,230.5,85.7,226.9,85.7z M224.1,77h5.5c0-1.6-1.2-2.4-2.7-2.4
		C225.4,74.5,224.3,75.4,224.1,77z"/>
	<path d="M236.7,74.8h-1.6v-3.6h1.6v-0.4c0-3.7,2.3-5.6,6.6-5.3v3.7c-1.7-0.1-2.3,0.4-2.3,1.9v0.1h2.3v3.6h-2.3v10.6h-4.4V74.8z"/>
	<path d="M251.8,85.7c-4.2,0-7.2-2.8-7.2-7.3c0-4.5,3-7.3,7.2-7.3c4.2,0,7.1,2.8,7.1,7.1c0,0.4,0,0.8-0.1,1.3H249
		c0.2,1.9,1.3,2.7,2.7,2.7c1.2,0,1.9-0.6,2.3-1.4h4.6C257.9,83.5,255.4,85.7,251.8,85.7z M249,77h5.5c0-1.6-1.2-2.4-2.7-2.4
		C250.3,74.5,249.2,75.4,249,77z"/>
	<path d="M265.6,85.5h-4.4V71.2h4.4v2.4c1-1.5,2.6-2.5,4.5-2.5v4.6h-1.2c-2.1,0-3.3,0.7-3.3,3.2V85.5z"/>
	<path d="M278.4,85.7c-4.2,0-7.2-2.8-7.2-7.3c0-4.5,3-7.3,7.2-7.3c4.2,0,7.1,2.8,7.1,7.1c0,0.4,0,0.8-0.1,1.3h-9.9
		c0.2,1.9,1.3,2.7,2.7,2.7c1.2,0,1.9-0.6,2.3-1.4h4.6C284.5,83.5,282,85.7,278.4,85.7z M275.6,77h5.5c0-1.6-1.2-2.4-2.7-2.4
		C277,74.5,275.9,75.4,275.6,77z"/>
	<path d="M297.7,77.7c0-1.9-1.1-3-2.7-3s-2.7,1.1-2.7,3v7.7h-4.4V71.2h4.4v1.9c0.9-1.2,2.4-2,4.3-2c3.3,0,5.5,2.2,5.5,6.1v8.3h-4.3
		V77.7z"/>
	<path d="M311.3,71c3.6,0,6.1,2,6.8,5.4h-4.6c-0.4-1-1.1-1.6-2.3-1.6c-1.6,0-2.6,1.2-2.6,3.6c0,2.4,1.1,3.6,2.6,3.6
		c1.2,0,1.9-0.6,2.3-1.6h4.6c-0.7,3.3-3.3,5.4-6.8,5.4c-4.2,0-7.1-2.8-7.1-7.3C304.2,73.8,307.1,71,311.3,71z"/>
	<path d="M326.8,85.7c-4.2,0-7.2-2.8-7.2-7.3c0-4.5,3-7.3,7.2-7.3c4.2,0,7.1,2.8,7.1,7.1c0,0.4,0,0.8-0.1,1.3h-9.9
		c0.2,1.9,1.3,2.7,2.7,2.7c1.2,0,1.9-0.6,2.3-1.4h4.6C332.9,83.5,330.3,85.7,326.8,85.7z M324,77h5.5c0-1.6-1.2-2.4-2.7-2.4
		C325.3,74.5,324.2,75.4,324,77z"/>
</g>
</svg>
